===== CELEBRATING ROCKANTHROLOGY ENJOY MY FAVORITE ALL TIME ROCK VIDEOS =====

============= DARK TRANQUILITY MONOCHROMATIC STAINS ========================

Dark Tranquility is a Swedish melodic death metal band from Gothenburg. They are one of the longest-standing bands from the original Gothenburg metal scene, and are one of the most integral pioneers of the melodic death metal genre of music
================================================================================
Genres 	Melodic death metal
Released 	July 22, 2002
================================================================================ 

Format                           : MPEG-PS
File size                        : 36.6 MiB
Duration                         : 3mn 39s
Overall bit rate                 : 1 396 Kbps
Writing library                  : encoded by TMPGEnc (ver. 2.55.38.142)

Video
ID                               : 224 (0xE0)
Format                           : MPEG Video
Format version                   : Version 1
Format settings, BVOP            : Yes
Format settings, Matrix          : Default
Duration                         : 3mn 39s
Bit rate mode                    : Constant
Bit rate                         : 1 150 Kbps
Width                            : 352 pixels
Height                           : 288 pixels
Display aspect ratio             : 4:3
Frame rate                       : 25.000 fps
Standard                         : PAL
Color space                      : YUV
Bit depth                        : 8 bits
Scan type                        : Progressive
Bits/(Pixel*Frame)               : 0.454
Stream size                      : 30.0 MiB (82%)
Writing library                  : TMPGEnc 2.55.38.142

Audio
ID                               : 192 (0xC0)
Format                           : MPEG Audio
Format version                   : Version 1
Format profile                   : Layer 2
Duration                         : 3mn 39s
Bit rate mode                    : Constant
Bit rate                         : 224 Kbps
Channel(s)                       : 2 channels
Sampling rate                    : 44.1 KHz
Stream size                      : 5.87 MiB (16%)

=============================================================================

                       http://bayimg.com/jAhfOaaDL

==============================================================================

===========================================================================

===========================================================================
  
I URGE TO ALL D/L PLEASE HIT ON QUALITY +/- AND LEAVE COMMENTS IF POSSIBLE 

=============================================================================

========================== HAUNTING SUMMER ==================================
		